<?xml version="1.0" encoding="UTF-8"?>
<svg id="Layer_1" data-name="Layer 1" xmlns="http://www.w3.org/2000/svg" viewBox="0 0 251.69 219.33">
  <defs>
    <style>
      .cls-1 {
        fill: none;
        stroke: #231f20;
        stroke-miterlimit: 10;
      }

      .cls-2 {
        fill: #231f20;
      }
    </style>
  </defs>
  <path class="cls-1" d="M125.84,176.1h12.04c6.78,0,12.28,5.5,12.28,12.28v18.16c0,6.78,5.5,12.28,12.28,12.28h76.46c6.78,0,12.28-5.5,12.28-12.28V77.48c0-4.41-2.36-8.48-6.19-10.66C207.27,45.24,169.54,23.66,131.8,2.08c-3.69-2.11-8.22-2.11-11.91,0C82.15,23.66,44.42,45.24,6.69,66.81c-3.83,2.19-6.19,6.26-6.19,10.66V206.54c0,6.78,5.5,12.28,12.28,12.28H89.24c6.78,0,12.28-5.5,12.28-12.28v-18.16c0-6.78,5.5-12.28,12.28-12.28h12.04Z"/>
  <path class="cls-2" d="M226.08,55.99c.04-.33,.07-.67,.07-1.01V15.55c0-4.45-3.61-8.05-8.05-8.05h-8.61c-4.45,0-8.05,3.61-8.05,8.05v26.34c8.22,4.7,16.43,9.4,24.65,14.09Z"/>
</svg>